<?xml version="1.0" encoding="UTF-8" standalone="no"?>
<!DOCTYPE svg PUBLIC "-//W3C//DTD SVG 1.1//EN"
 "http://www.w3.org/Graphics/SVG/1.1/DTD/svg11.dtd">
<!-- Generated by graphviz version 2.38.0 (20140413.2041)
 -->
<!-- Title: models_diagram Pages: 1 -->
<svg width="919pt" height="288pt"
 viewBox="0.00 0.00 919.31 288.00" xmlns="http://www.w3.org/2000/svg" xmlns:xlink="http://www.w3.org/1999/xlink">
<g id="graph0" class="graph" transform="scale(1 1) rotate(0) translate(4 284)">
<title>models_diagram</title>
<polygon fill="none" stroke="none" points="-4,4 -4,-284 915.312,-284 915.312,4 -4,4"/>
<!-- _diagram_info -->
<g id="node1" class="node"><title>_diagram_info</title>
<text text-anchor="start" x="8" y="-251.6" font-family="Times,serif" font-size="13.00">Models diagram</text>
<text text-anchor="start" x="8" y="-238.6" font-family="Times,serif" font-size="13.00">Date: Oct 28 2016 &#45; 20:38</text>
<text text-anchor="start" x="8" y="-225.6" font-family="Times,serif" font-size="13.00">Migration version: 20161028231147</text>
<text text-anchor="start" x="8" y="-212.6" font-family="Times,serif" font-size="13.00">Generated by RailRoady 1.5.2</text>
<text text-anchor="start" x="8" y="-199.6" font-family="Times,serif" font-size="13.00">http://railroady.prestonlee.com</text>
</g>
<!-- ApplicationRecord -->
<g id="node2" class="node"><title>ApplicationRecord</title>
<ellipse fill="none" stroke="black" cx="302.45" cy="-229.5" rx="77.2916" ry="18"/>
<text text-anchor="middle" x="302.45" y="-225.3" font-family="Times,serif" font-size="14.00">ApplicationRecord</text>
</g>
<!-- Category -->
<g id="node3" class="node"><title>Category</title>
<path fill="none" stroke="black" d="M409.587,-186.5C409.587,-186.5 633.312,-186.5 633.312,-186.5 639.312,-186.5 645.312,-192.5 645.312,-198.5 645.312,-198.5 645.312,-260.5 645.312,-260.5 645.312,-266.5 639.312,-272.5 633.312,-272.5 633.312,-272.5 409.587,-272.5 409.587,-272.5 403.587,-272.5 397.587,-266.5 397.587,-260.5 397.587,-260.5 397.587,-198.5 397.587,-198.5 397.587,-192.5 403.587,-186.5 409.587,-186.5"/>
<text text-anchor="middle" x="521.45" y="-257.3" font-family="Times,serif" font-size="14.00">Category</text>
<polyline fill="none" stroke="black" points="397.587,-250.5 645.312,-250.5 "/>
<text text-anchor="start" x="405.587" y="-235.3" font-family="Times,serif" font-size="14.00">id :integer</text>
<text text-anchor="start" x="405.587" y="-221.3" font-family="Times,serif" font-size="14.00">name :character varying</text>
<text text-anchor="start" x="405.587" y="-207.3" font-family="Times,serif" font-size="14.00">created_at :timestamp without time zone</text>
<text text-anchor="start" x="405.587" y="-193.3" font-family="Times,serif" font-size="14.00">updated_at :timestamp without time zone</text>
</g>
<!-- Item -->
<g id="node4" class="node"><title>Item</title>
<path fill="none" stroke="black" d="M542.587,-0.5C542.587,-0.5 766.312,-0.5 766.312,-0.5 772.312,-0.5 778.312,-6.5 778.312,-12.5 778.312,-12.5 778.312,-130.5 778.312,-130.5 778.312,-136.5 772.312,-142.5 766.312,-142.5 766.312,-142.5 542.587,-142.5 542.587,-142.5 536.587,-142.5 530.587,-136.5 530.587,-130.5 530.587,-130.5 530.587,-12.5 530.587,-12.5 530.587,-6.5 536.587,-0.5 542.587,-0.5"/>
<text text-anchor="middle" x="654.45" y="-127.3" font-family="Times,serif" font-size="14.00">Item</text>
<polyline fill="none" stroke="black" points="530.587,-120.5 778.312,-120.5 "/>
<text text-anchor="start" x="538.587" y="-105.3" font-family="Times,serif" font-size="14.00">user_id :integer</text>
<text text-anchor="start" x="538.587" y="-91.3" font-family="Times,serif" font-size="14.00">serial :integer</text>
<text text-anchor="start" x="538.587" y="-77.3" font-family="Times,serif" font-size="14.00">size :integer</text>
<text text-anchor="start" x="538.587" y="-63.3" font-family="Times,serif" font-size="14.00">description :text</text>
<text text-anchor="start" x="538.587" y="-49.3" font-family="Times,serif" font-size="14.00">category_id :integer</text>
<text text-anchor="start" x="538.587" y="-35.3" font-family="Times,serif" font-size="14.00">created_at :timestamp without time zone</text>
<text text-anchor="start" x="538.587" y="-21.3" font-family="Times,serif" font-size="14.00">updated_at :timestamp without time zone</text>
<text text-anchor="start" x="538.587" y="-7.3" font-family="Times,serif" font-size="14.00">id :integer</text>
</g>
<!-- Category&#45;&gt;Item -->
<g id="edge1" class="edge"><title>Category&#45;&gt;Item</title>
<path fill="none" stroke="#1b963e" d="M562.642,-180.184C570.703,-170.729 579.348,-160.589 587.992,-150.45"/>
<ellipse fill="none" stroke="#1b963e" cx="560.037" cy="-183.24" rx="4.00002" ry="4.00002"/>
<polygon fill="#1b963e" stroke="#1b963e" points="588.104,-150.319 598.016,-145.629 591.348,-146.514 594.592,-142.709 594.592,-142.709 594.592,-142.709 591.348,-146.514 591.168,-139.789 588.104,-150.319 588.104,-150.319"/>
</g>
<!-- User -->
<g id="node5" class="node"><title>User</title>
<path fill="none" stroke="black" d="M675.587,-179.5C675.587,-179.5 899.312,-179.5 899.312,-179.5 905.312,-179.5 911.312,-185.5 911.312,-191.5 911.312,-191.5 911.312,-267.5 911.312,-267.5 911.312,-273.5 905.312,-279.5 899.312,-279.5 899.312,-279.5 675.587,-279.5 675.587,-279.5 669.587,-279.5 663.587,-273.5 663.587,-267.5 663.587,-267.5 663.587,-191.5 663.587,-191.5 663.587,-185.5 669.587,-179.5 675.587,-179.5"/>
<text text-anchor="middle" x="787.45" y="-264.3" font-family="Times,serif" font-size="14.00">User</text>
<polyline fill="none" stroke="black" points="663.587,-257.5 911.312,-257.5 "/>
<text text-anchor="start" x="671.587" y="-242.3" font-family="Times,serif" font-size="14.00">id :integer</text>
<text text-anchor="start" x="671.587" y="-228.3" font-family="Times,serif" font-size="14.00">name :character varying</text>
<text text-anchor="start" x="671.587" y="-214.3" font-family="Times,serif" font-size="14.00">email :character varying</text>
<text text-anchor="start" x="671.587" y="-200.3" font-family="Times,serif" font-size="14.00">created_at :timestamp without time zone</text>
<text text-anchor="start" x="671.587" y="-186.3" font-family="Times,serif" font-size="14.00">updated_at :timestamp without time zone</text>
</g>
<!-- User&#45;&gt;Item -->
<g id="edge2" class="edge"><title>User&#45;&gt;Item</title>
<path fill="none" stroke="#239a5e" d="M739.96,-172.797C733.839,-165.618 727.484,-158.164 721.127,-150.707"/>
<ellipse fill="none" stroke="#239a5e" cx="742.773" cy="-176.097" rx="4.00002" ry="4.00002"/>
<polygon fill="#239a5e" stroke="#239a5e" points="720.726,-150.238 717.663,-139.709 717.482,-146.433 714.238,-142.628 714.238,-142.628 714.238,-142.628 717.482,-146.433 710.814,-145.548 720.726,-150.238 720.726,-150.238"/>
</g>
</g>
</svg>
