<?xml version="1.0" encoding="UTF-8" standalone="no"?>
<!DOCTYPE svg PUBLIC "-//W3C//DTD SVG 1.1//EN"
 "http://www.w3.org/Graphics/SVG/1.1/DTD/svg11.dtd">
<!-- Generated by graphviz version 2.38.0 (20140413.2041)
 -->
<!-- Title: models_diagram Pages: 1 -->
<svg width="563pt" height="153pt"
 viewBox="0.00 0.00 563.45 153.00" xmlns="http://www.w3.org/2000/svg" xmlns:xlink="http://www.w3.org/1999/xlink">
<g id="graph0" class="graph" transform="scale(1 1) rotate(0) translate(4 149)">
<title>models_diagram</title>
<polygon fill="none" stroke="none" points="-4,4 -4,-149 559.45,-149 559.45,4 -4,4"/>
<!-- _diagram_info -->
<g id="node1" class="node"><title>_diagram_info</title>
<text text-anchor="start" x="8" y="-130.6" font-family="Times,serif" font-size="13.00">Models diagram</text>
<text text-anchor="start" x="8" y="-117.6" font-family="Times,serif" font-size="13.00">Date: Oct 28 2016 &#45; 20:38</text>
<text text-anchor="start" x="8" y="-104.6" font-family="Times,serif" font-size="13.00">Migration version: 20161028231147</text>
<text text-anchor="start" x="8" y="-91.6" font-family="Times,serif" font-size="13.00">Generated by RailRoady 1.5.2</text>
<text text-anchor="start" x="8" y="-78.6" font-family="Times,serif" font-size="13.00">http://railroady.prestonlee.com</text>
</g>
<!-- ApplicationRecord -->
<g id="node2" class="node"><title>ApplicationRecord</title>
<ellipse fill="none" stroke="black" cx="302.45" cy="-108.5" rx="77.2916" ry="18"/>
<text text-anchor="middle" x="302.45" y="-104.3" font-family="Times,serif" font-size="14.00">ApplicationRecord</text>
</g>
<!-- Category -->
<g id="node3" class="node"><title>Category</title>
<ellipse fill="none" stroke="black" cx="440.45" cy="-108.5" rx="42.5456" ry="18"/>
<text text-anchor="middle" x="440.45" y="-104.3" font-family="Times,serif" font-size="14.00">Category</text>
</g>
<!-- Item -->
<g id="node4" class="node"><title>Item</title>
<ellipse fill="none" stroke="black" cx="484.45" cy="-18" rx="27" ry="18"/>
<text text-anchor="middle" x="484.45" y="-13.8" font-family="Times,serif" font-size="14.00">Item</text>
</g>
<!-- Category&#45;&gt;Item -->
<g id="edge1" class="edge"><title>Category&#45;&gt;Item</title>
<path fill="none" stroke="#9e0020" d="M452.673,-82.9151C458.617,-70.9588 465.757,-56.598 471.762,-44.5201"/>
<ellipse fill="none" stroke="#9e0020" cx="450.714" cy="-86.8546" rx="4.00002" ry="4.00002"/>
<polygon fill="#9e0020" stroke="#9e0020" points="471.838,-44.3673 480.319,-37.4163 474.064,-39.8901 476.29,-35.4129 476.29,-35.4129 476.29,-35.4129 474.064,-39.8901 472.26,-33.4095 471.838,-44.3673 471.838,-44.3673"/>
</g>
<!-- User -->
<g id="node5" class="node"><title>User</title>
<ellipse fill="none" stroke="black" cx="528.45" cy="-108.5" rx="27" ry="18"/>
<text text-anchor="middle" x="528.45" y="-104.3" font-family="Times,serif" font-size="14.00">User</text>
</g>
<!-- User&#45;&gt;Item -->
<g id="edge2" class="edge"><title>User&#45;&gt;Item</title>
<path fill="none" stroke="#551834" d="M516.624,-83.7147C510.633,-71.6639 503.35,-57.0162 497.23,-44.7061"/>
<ellipse fill="none" stroke="#551834" cx="518.599" cy="-87.686" rx="4.00002" ry="4.00002"/>
<polygon fill="#551834" stroke="#551834" points="497.07,-44.3834 496.647,-33.4257 494.844,-39.9063 492.618,-35.4291 492.618,-35.4291 492.618,-35.4291 494.844,-39.9063 488.588,-37.4324 497.07,-44.3834 497.07,-44.3834"/>
</g>
</g>
</svg>
